<?xml version="1.0" standalone="no"?>
<!DOCTYPE svg PUBLIC "-//W3C//DTD SVG 20010904//EN"
 "http://www.w3.org/TR/2001/REC-SVG-20010904/DTD/svg10.dtd">
<svg version="1.0" xmlns="http://www.w3.org/2000/svg"
 width="200.000000pt" height="200.000000pt" viewBox="0 0 200.000000 200.000000"
 preserveAspectRatio="xMidYMid meet">

<g transform="translate(0.000000,200.000000) scale(0.100000,-0.100000)"
fill="#000000" stroke="none">
<path d="M1164 1929 c33 -35 64 -68 68 -74 6 -6 14 -3 23 9 13 17 23 13 180
-79 117 -69 163 -101 156 -108 -18 -18 -12 -37 12 -37 13 0 55 -8 95 -19 l71
-18 -67 73 c-63 69 -68 72 -82 55 -16 -19 -9 -23 -330 168 -12 8 -12 12 -1 25
8 9 12 18 10 20 -2 2 -40 11 -84 21 -44 10 -86 20 -95 23 -8 3 12 -24 44 -59z"/>
<path d="M515 1661 l-360 -208 0 -433 0 -433 350 -203 c192 -112 354 -204 358
-204 9 0 642 363 710 406 l37 24 0 424 c0 327 -3 426 -12 434 -37 28 -692 402
-706 402 -9 0 -179 -94 -377 -209z m691 -23 c173 -101 313 -186 312 -190 -2
-4 -150 -93 -330 -197 l-327 -188 -312 181 c-172 99 -311 186 -309 191 3 8
631 380 649 384 2 1 145 -81 317 -181z m354 -620 l0 -383 -287 -165 c-158 -91
-309 -177 -335 -193 l-48 -28 2 387 3 387 325 188 c179 104 328 189 333 189 4
0 7 -172 7 -382z m-1033 180 l313 -183 0 -383 0 -383 -53 30 c-28 16 -171 99
-317 184 l-265 154 -3 382 c-1 209 1 381 4 381 4 0 148 -82 321 -182z"/>
<path d="M1787 1430 c-2 -8 -16 -50 -29 -92 l-25 -77 21 -3 c20 -3 21 -8 24
-195 l2 -193 -24 0 -25 0 26 -77 c13 -43 27 -85 30 -93 2 -8 15 19 27 60 13
41 26 83 31 93 6 14 2 17 -19 17 l-26 0 2 193 3 192 23 3 c18 3 22 8 16 20 -4
9 -17 51 -30 92 -12 41 -24 68 -27 60z"/>
<path d="M1510 380 c-36 -10 -77 -19 -92 -19 -29 -1 -37 -18 -17 -38 7 -7 -39
-39 -156 -108 -156 -92 -167 -96 -180 -79 -12 17 -18 13 -78 -51 -36 -39 -64
-71 -63 -72 1 -2 180 39 184 43 2 1 -1 11 -7 21 -9 17 7 29 152 115 153 91
163 95 178 78 14 -16 19 -13 83 56 37 41 66 74 64 73 -2 -1 -32 -9 -68 -19z"/>
</g>
</svg>
