<?xml version="1.0" standalone="no"?>
<!DOCTYPE svg PUBLIC "-//W3C//DTD SVG 20010904//EN"
 "http://www.w3.org/TR/2001/REC-SVG-20010904/DTD/svg10.dtd">
<svg version="1.0" xmlns="http://www.w3.org/2000/svg"
 width="512.000000pt" height="512.000000pt" viewBox="0 0 512.000000 512.000000"
 preserveAspectRatio="xMidYMid meet">

<g transform="translate(0.000000,512.000000) scale(0.100000,-0.100000)"
fill="#000000" stroke="none">
<path d="M867 4950 c-58 -15 -135 -57 -183 -102 -41 -38 -114 -162 -114 -194
0 -11 -35 -14 -180 -14 -179 0 -181 0 -205 -25 l-25 -24 0 -711 0 -711 25 -24
c32 -33 78 -33 110 0 l25 24 0 656 0 655 430 0 c237 0 430 -2 430 -5 0 -15
-31 -63 -57 -87 -38 -36 -110 -68 -156 -68 -78 0 -115 -83 -61 -137 24 -24 30
-25 91 -20 82 8 175 50 237 107 43 40 116 164 116 196 0 11 43 14 235 14 129
0 235 -2 235 -5 0 -19 -35 -68 -70 -97 -42 -37 -97 -58 -149 -58 -72 0 -106
-86 -55 -137 24 -24 30 -25 91 -20 82 8 175 50 237 107 43 40 116 164 116 196
0 11 43 14 235 14 129 0 235 -2 235 -5 0 -19 -35 -68 -70 -97 -42 -37 -97 -58
-149 -58 -72 0 -106 -86 -55 -137 24 -24 30 -25 91 -20 82 8 175 50 237 107
43 40 116 164 116 196 0 11 43 14 235 14 129 0 235 -2 235 -5 0 -19 -35 -68
-70 -97 -42 -37 -97 -58 -149 -58 -72 0 -106 -86 -55 -137 24 -24 30 -25 91
-20 82 8 175 50 237 107 43 40 116 164 116 196 0 11 43 14 235 14 129 0 235
-2 235 -5 0 -19 -35 -68 -70 -97 -42 -37 -97 -58 -149 -58 -72 0 -106 -86 -55
-137 24 -24 30 -25 91 -20 82 8 175 50 237 107 43 40 116 164 116 196 0 11 22
14 100 14 94 0 103 2 125 25 33 32 33 78 0 110 -22 23 -32 25 -110 25 -47 0
-85 2 -85 5 0 32 64 102 120 131 51 27 152 25 206 -4 79 -41 134 -128 134
-212 0 -123 -116 -240 -239 -240 -72 0 -106 -86 -55 -137 24 -24 30 -25 91
-20 82 8 175 50 237 107 43 40 116 164 116 196 0 11 26 14 125 14 l125 0 0
-541 0 -540 -27 19 c-57 39 -124 57 -219 57 -84 0 -95 -2 -166 -38 -51 -25
-91 -53 -120 -86 -24 -27 -163 -257 -316 -523 l-274 -475 -24 23 c-19 20 -34
24 -79 24 l-55 0 0 320 0 320 135 0 c131 0 137 1 160 25 14 13 25 33 25 45 0
11 -38 154 -85 318 -64 223 -90 301 -106 315 -19 15 -45 17 -209 17 -164 0
-190 -2 -209 -17 -16 -14 -42 -92 -106 -315 -47 -164 -85 -307 -85 -318 0 -12
11 -32 25 -45 23 -24 29 -25 160 -25 l135 0 0 -320 0 -320 -55 0 c-46 0 -60
-4 -80 -25 -30 -29 -32 -74 -6 -106 19 -23 25 -24 205 -29 l186 -5 -321 -555
c-284 -492 -322 -562 -330 -615 -5 -33 -11 -70 -14 -83 l-5 -22 -1310 0 -1310
0 0 80 0 80 1215 0 1216 0 24 25 c33 32 33 78 0 110 l-24 25 -1216 0 -1215 0
0 815 0 816 -25 24 c-32 33 -78 33 -110 0 l-25 -24 0 -1031 0 -1031 25 -24 24
-25 1356 0 1356 0 -6 -32 c-12 -71 -75 -522 -75 -540 0 -29 45 -68 79 -68 41
0 722 535 760 597 l26 42 523 1 523 0 24 25 c24 23 25 29 25 160 l0 135 55 0
c46 0 60 4 80 25 l25 24 0 1711 0 1711 -25 24 c-24 25 -26 25 -205 25 -145 0
-180 3 -180 14 0 7 -16 45 -35 83 -43 86 -103 144 -193 186 -61 29 -76 32
-162 32 -86 0 -101 -3 -161 -31 -36 -18 -87 -52 -113 -76 l-46 -45 -46 45
c-26 24 -77 58 -113 76 -60 28 -75 31 -161 31 -86 0 -101 -3 -161 -31 -36 -18
-87 -52 -113 -76 l-46 -45 -46 45 c-26 24 -77 58 -113 76 -60 28 -75 31 -161
31 -86 0 -101 -3 -161 -31 -36 -18 -87 -52 -113 -76 l-46 -45 -46 45 c-26 24
-77 58 -113 76 -60 28 -75 31 -161 31 -86 0 -101 -3 -161 -31 -36 -18 -87 -52
-113 -76 l-46 -45 -46 45 c-26 24 -77 58 -113 76 -60 28 -75 31 -161 31 -86 0
-101 -3 -161 -31 -36 -18 -87 -52 -113 -76 l-46 -45 -46 45 c-69 66 -156 103
-252 108 -42 2 -94 -1 -115 -6z m164 -162 c60 -17 149 -103 149 -143 0 -3 -99
-5 -220 -5 -121 0 -220 3 -220 8 0 17 41 72 74 98 64 52 139 66 217 42z m640
0 c60 -17 149 -103 149 -143 0 -3 -99 -5 -220 -5 -121 0 -220 3 -220 8 0 17
41 72 74 98 64 52 139 66 217 42z m640 0 c60 -17 149 -103 149 -143 0 -3 -99
-5 -220 -5 -121 0 -220 3 -220 8 0 17 41 72 74 98 64 52 139 66 217 42z m640
0 c60 -17 149 -103 149 -143 0 -3 -99 -5 -220 -5 -121 0 -220 3 -220 8 0 17
41 72 74 98 64 52 139 66 217 42z m640 0 c60 -17 149 -103 149 -143 0 -3 -99
-5 -220 -5 -121 0 -220 3 -220 8 0 17 41 72 74 98 64 52 139 66 217 42z m-32
-1255 c46 -156 91 -318 91 -325 0 -4 -94 -8 -210 -8 -115 0 -210 4 -210 8 0 7
45 169 91 325 l20 67 99 0 99 0 20 -67z m1075 -225 c26 -8 60 -31 92 -63 57
-57 80 -117 72 -190 -6 -45 -60 -161 -75 -158 -4 1 -99 54 -210 118 l-202 116
29 47 c74 121 175 165 294 130z m-191 -438 c108 -62 197 -117 197 -122 0 -12
-60 -117 -71 -124 -7 -4 -237 123 -390 215 l-27 16 40 68 c21 37 42 66 46 64
4 -2 96 -55 205 -117z m-297 -197 c57 -33 62 -38 52 -57 -20 -38 -900 -1561
-905 -1566 -6 -6 -131 62 -133 73 -2 8 879 1544 903 1575 13 17 12 17 83 -25z
m654 -688 l0 -705 -406 0 c-366 0 -406 2 -400 16 3 8 40 74 81 145 83 142 91
174 50 214 -30 31 -66 32 -99 3 -14 -13 -122 -192 -241 -399 l-217 -377 -69
40 -69 40 32 57 c280 492 885 1531 893 1530 6 0 38 -17 71 -37 l62 -37 -166
-285 c-178 -306 -188 -334 -143 -371 30 -24 86 -25 109 -1 9 10 127 210 262
445 135 235 246 427 248 427 1 0 2 -317 2 -705z m-160 -945 l0 -80 -421 0
c-231 0 -418 3 -416 8 2 4 23 40 46 80 l42 72 374 0 375 0 0 -80z m-1358 -177
c92 -54 168 -100 168 -103 -1 -10 -129 -102 -138 -98 -4 1 -58 32 -120 68 -95
54 -112 68 -108 85 3 11 8 48 12 83 3 34 9 62 12 62 3 0 81 -44 174 -97z
m-167 -274 c30 -17 57 -34 59 -38 3 -4 -29 -34 -71 -66 l-76 -58 6 39 c4 21 9
65 13 97 4 31 8 57 11 57 2 0 28 -14 58 -31z"/>
<path d="M1065 3975 c-24 -23 -25 -31 -25 -135 0 -104 1 -112 25 -135 15 -16
36 -25 55 -25 33 0 80 38 80 65 0 13 69 15 640 15 571 0 640 -2 640 -15 0 -27
47 -65 80 -65 19 0 40 9 55 25 24 23 25 31 25 135 0 104 -1 112 -25 135 -32
33 -78 33 -110 0 -14 -13 -25 -31 -25 -40 0 -13 -69 -15 -640 -15 -571 0 -640
2 -640 15 0 27 -47 65 -80 65 -19 0 -40 -9 -55 -25z"/>
<path d="M1186 3509 c-62 -15 -153 -68 -197 -116 -67 -73 -101 -158 -107 -269
l-5 -94 -52 -24 c-64 -29 -116 -80 -153 -149 l-27 -52 0 -325 c0 -317 1 -326
23 -370 35 -72 75 -114 144 -151 l63 -34 965 0 965 0 63 34 c70 38 101 70 140
145 23 46 26 64 30 188 4 136 4 137 -21 162 -31 31 -75 34 -108 7 -22 -18 -24
-28 -29 -149 -4 -111 -8 -135 -26 -158 -44 -60 -67 -69 -185 -72 l-110 -4 3
350 c3 336 4 352 24 378 39 53 71 69 134 69 90 0 144 -49 159 -145 14 -88 82
-120 138 -64 23 23 25 31 20 80 -12 114 -83 215 -182 260 l-52 24 -5 95 c-5
84 -10 104 -41 169 -44 88 -103 146 -195 189 l-67 32 -635 2 c-363 1 -652 -3
-674 -8z m1288 -161 c55 -16 138 -99 154 -154 7 -23 12 -69 12 -102 l0 -61
-53 -24 c-66 -30 -118 -81 -154 -150 -25 -48 -27 -64 -31 -195 -4 -128 -6
-143 -21 -136 -78 32 -107 34 -541 34 -435 0 -463 -2 -542 -34 -14 -7 -16 7
-20 131 -3 124 -6 144 -29 194 -33 70 -87 125 -156 156 l-53 24 0 61 c0 33 5
79 12 102 15 51 99 137 148 153 52 16 1219 17 1274 1z m-1426 -495 c14 -10 35
-32 46 -47 20 -26 21 -42 24 -378 l3 -350 -110 4 c-118 3 -141 12 -185 72 -20
26 -21 43 -24 299 -2 150 0 286 3 304 7 40 49 91 90 109 40 19 120 12 153 -13z
m1278 -479 c60 -44 69 -67 72 -185 l4 -109 -561 0 -561 0 0 94 c0 102 9 137
43 175 47 50 50 51 529 48 434 -2 447 -3 474 -23z"/>
<path d="M1465 3095 c-14 -13 -25 -30 -25 -37 0 -7 -15 -20 -33 -28 -61 -28
-62 -111 -2 -140 17 -8 37 -28 45 -45 29 -59 111 -59 140 0 8 17 28 37 45 45
60 29 59 112 -2 140 -18 8 -33 21 -33 28 0 25 -48 62 -80 62 -19 0 -40 -9 -55
-25z"/>
<path d="M2105 3095 c-14 -13 -25 -30 -25 -37 0 -7 -15 -20 -33 -28 -61 -28
-62 -111 -2 -140 17 -8 37 -28 45 -45 29 -59 111 -59 140 0 8 17 28 37 45 45
60 29 59 112 -2 140 -18 8 -33 21 -33 28 0 25 -48 62 -80 62 -19 0 -40 -9 -55
-25z"/>
<path d="M665 1735 c-24 -23 -25 -31 -25 -135 0 -104 1 -112 25 -135 15 -16
36 -25 55 -25 33 0 80 38 80 65 0 13 109 15 1040 15 931 0 1040 -2 1040 -15 0
-9 11 -27 25 -40 32 -33 78 -33 110 0 24 23 25 31 25 135 0 104 -1 112 -25
135 -32 33 -78 33 -110 0 -14 -13 -25 -31 -25 -40 0 -13 -109 -15 -1040 -15
-931 0 -1040 2 -1040 15 0 27 -47 65 -80 65 -19 0 -40 -9 -55 -25z"/>
</g>
</svg>
