<?xml version="1.0" standalone="no"?>
<!DOCTYPE svg PUBLIC "-//W3C//DTD SVG 20010904//EN"
 "http://www.w3.org/TR/2001/REC-SVG-20010904/DTD/svg10.dtd">
<svg version="1.0" xmlns="http://www.w3.org/2000/svg"
 width="512.000000pt" height="512.000000pt" viewBox="0 0 512.000000 512.000000"
 preserveAspectRatio="xMidYMid meet">

<g transform="translate(0.000000,512.000000) scale(0.100000,-0.100000)"
fill="#000000" stroke="none">
<path d="M2324 5031 c-47 -12 -133 -62 -160 -94 -52 -62 -77 -127 -82 -214
l-5 -83 81 0 80 0 4 70 c4 74 19 105 72 144 27 21 40 21 577 24 l549 2 0 -840
0 -840 80 0 80 0 0 840 0 840 535 0 c594 0 580 1 631 -66 l29 -37 0 -2058 0
-2058 -21 -27 c-11 -15 -33 -37 -48 -48 -26 -20 -41 -21 -417 -24 l-389 -3 0
-79 0 -80 95 0 95 0 75 -150 c41 -82 83 -154 94 -160 11 -5 83 -10 166 -10
142 0 147 1 170 25 24 23 25 29 25 158 l0 135 47 7 c60 8 156 59 189 98 14 16
37 53 52 81 l27 51 0 2085 0 2085 -27 51 c-40 76 -70 107 -140 145 l-63 34
-1185 2 c-652 0 -1199 -2 -1216 -6z m2156 -4711 l0 -80 -55 0 -55 0 -40 80
-40 80 95 0 95 0 0 -80z"/>
<path d="M1440 4560 l0 -80 -335 0 -336 0 -24 -25 c-14 -13 -25 -32 -25 -42 0
-10 -18 -232 -40 -493 -22 -261 -40 -483 -40 -493 0 -10 11 -29 25 -42 l24
-25 376 0 375 0 0 -80 0 -80 80 0 80 0 0 80 0 80 375 0 376 0 24 25 c14 13 25
32 25 42 0 10 -18 232 -40 493 -22 261 -40 483 -40 493 0 10 -11 29 -25 42
l-24 25 -336 0 -335 0 0 80 0 80 -80 0 -80 0 0 -80z m730 -262 c0 -13 14 -183
30 -378 16 -195 30 -365 30 -377 l0 -23 -710 0 -710 0 0 23 c0 12 14 182 30
377 16 195 30 365 30 378 l0 22 650 0 650 0 0 -22z"/>
<path d="M884 3031 c-47 -12 -133 -62 -160 -94 -14 -17 -37 -53 -52 -81 -27
-51 -27 -52 -30 -293 l-3 -243 80 0 80 0 3 229 c3 252 4 255 72 305 27 21 32
21 1352 24 1465 2 1366 7 1420 -64 l29 -37 3 -229 3 -228 80 0 81 0 -4 243
c-3 241 -3 242 -30 293 -40 76 -70 107 -140 145 l-63 34 -1345 2 c-740 0
-1359 -2 -1376 -6z"/>
<path d="M1760 2480 l0 -80 80 0 80 0 0 80 0 80 -80 0 -80 0 0 -80z"/>
<path d="M2560 2480 l0 -80 80 0 80 0 0 80 0 80 -80 0 -80 0 0 -80z"/>
<path d="M630 2154 c-108 -21 -231 -85 -305 -159 -54 -55 -110 -146 -137 -223
-30 -88 -32 -249 -4 -332 66 -195 217 -339 403 -382 l51 -12 4 -206 3 -205 34
-63 c19 -35 48 -74 64 -88 45 -38 117 -71 170 -79 l47 -7 0 -135 c0 -129 1
-135 25 -158 23 -24 28 -25 170 -25 83 0 155 5 166 10 11 6 53 78 94 160 l75
150 750 0 750 0 75 -150 c41 -82 83 -154 94 -160 11 -5 83 -10 166 -10 142 0
147 1 170 25 24 23 25 29 25 158 l0 135 48 7 c59 8 155 59 188 98 14 16 37 53
52 81 26 50 27 56 30 256 l4 206 51 12 c185 43 338 188 403 382 26 76 26 244
0 320 -63 186 -190 313 -376 376 -83 28 -244 26 -332 -4 -185 -64 -333 -230
-374 -421 -8 -41 -14 -128 -14 -228 l0 -163 -23 9 c-40 15 -269 60 -387 75
-359 47 -799 45 -1135 -5 -103 -15 -273 -49 -326 -64 l-47 -13 -4 196 c-5 214
-15 263 -82 376 -89 152 -266 254 -451 261 -49 2 -101 1 -115 -1z m254 -192
c90 -42 149 -100 194 -190 l37 -76 3 -211 4 -211 -84 -32 c-126 -48 -124 -44
-77 -124 l40 -68 38 19 c62 32 267 97 396 126 504 112 1106 112 1610 0 129
-29 334 -94 396 -126 l38 -19 40 68 c47 79 49 76 -76 124 l-83 31 0 182 c0
198 11 266 57 344 40 68 107 129 181 164 61 29 76 32 163 32 90 0 99 -2 171
-37 91 -45 147 -103 191 -196 29 -61 32 -76 32 -162 0 -86 -3 -101 -32 -162
-17 -37 -50 -87 -74 -112 -58 -64 -163 -114 -252 -123 -116 -10 -111 1 -117
-291 -5 -275 -6 -275 -74 -326 -27 -21 -30 -21 -1365 -21 l-1338 0 -37 29
c-62 47 -66 66 -66 326 0 227 0 231 -23 254 -17 17 -39 24 -91 29 -142 13
-259 95 -324 225 -35 72 -37 81 -37 171 0 87 3 102 32 163 40 85 97 147 172
186 78 42 122 52 213 48 61 -3 92 -11 142 -34z m386 -1642 l-40 -80 -55 0 -55
0 0 80 0 80 95 0 95 0 -40 -80z m2090 0 l0 -80 -55 0 -55 0 -40 80 -40 80 95
0 95 0 0 -80z"/>
<path d="M640 1827 c-49 -16 -133 -102 -148 -153 -28 -94 -8 -169 63 -239 101
-102 229 -102 330 0 98 97 101 222 8 325 -65 72 -158 97 -253 67z m135 -172
c16 -15 25 -36 25 -55 0 -19 -9 -40 -25 -55 -15 -16 -36 -25 -55 -25 -19 0
-40 9 -55 25 -16 15 -25 36 -25 55 0 19 9 40 25 55 15 16 36 25 55 25 19 0 40
-9 55 -25z"/>
<path d="M3680 1827 c-49 -16 -133 -102 -148 -153 -28 -94 -8 -169 63 -239
101 -102 229 -102 330 0 98 97 101 222 8 325 -65 72 -158 97 -253 67z m135
-172 c50 -49 15 -135 -55 -135 -41 0 -80 39 -80 80 0 41 39 80 80 80 19 0 40
-9 55 -25z"/>
<path d="M1360 2080 l0 -80 80 0 80 0 0 80 0 80 -80 0 -80 0 0 -80z"/>
<path d="M2160 2080 l0 -80 80 0 80 0 0 80 0 80 -80 0 -80 0 0 -80z"/>
<path d="M2960 2080 l0 -80 80 0 80 0 0 80 0 80 -80 0 -80 0 0 -80z"/>
<path d="M1760 1680 l0 -80 80 0 80 0 0 80 0 80 -80 0 -80 0 0 -80z"/>
<path d="M2560 1680 l0 -80 80 0 80 0 0 80 0 80 -80 0 -80 0 0 -80z"/>
</g>
</svg>
