<?xml version="1.0" standalone="no"?>
<!DOCTYPE svg PUBLIC "-//W3C//DTD SVG 20010904//EN"
 "http://www.w3.org/TR/2001/REC-SVG-20010904/DTD/svg10.dtd">
<svg version="1.0" xmlns="http://www.w3.org/2000/svg"
 width="512.000000pt" height="512.000000pt" viewBox="0 0 512.000000 512.000000"
 preserveAspectRatio="xMidYMid meet">

<g transform="translate(0.000000,512.000000) scale(0.100000,-0.100000)"
fill="#000000" stroke="none">
<path d="M3941 5025 c-284 -62 -501 -332 -501 -625 0 -187 95 -384 239 -496
l59 -46 -88 -44 c-281 -141 -475 -409 -519 -719 -6 -39 -11 -157 -11 -262 l0
-193 -160 0 -160 0 0 480 0 480 -640 0 -640 0 0 -480 0 -480 -480 0 -480 0 0
-478 0 -478 -69 -10 c-191 -30 -347 -172 -396 -359 -69 -268 117 -545 396
-589 l69 -10 0 -318 0 -318 1360 0 1360 0 0 319 0 318 55 7 c48 5 91 18 167
50 15 7 17 -13 20 -226 3 -231 3 -234 30 -284 40 -76 70 -107 140 -145 56 -30
71 -33 143 -34 92 0 157 24 213 77 l32 32 33 -32 c55 -53 120 -77 212 -77 72
1 87 4 143 34 70 38 100 69 140 145 l27 51 3 841 3 841 82 5 c133 9 219 61
278 170 l34 63 3 385 c2 233 -1 416 -7 464 -43 316 -236 587 -521 730 l-88 44
59 46 c242 188 308 547 152 816 -139 238 -423 363 -692 305z m254 -160 c237
-62 393 -291 358 -529 -28 -194 -168 -351 -358 -401 -251 -65 -513 94 -580
350 -89 342 238 669 580 580z m35 -1121 c15 -15 -25 -89 -61 -115 -70 -50
-185 -24 -223 49 -27 52 -24 66 14 74 47 9 259 3 270 -8z m-450 -93 c35 -108
155 -199 274 -208 134 -11 247 54 306 174 19 39 40 72 45 72 6 1 47 -21 90
-48 202 -124 342 -336 375 -567 7 -51 10 -209 8 -446 -3 -352 -4 -368 -24
-394 -39 -53 -70 -68 -144 -72 l-70 -4 0 561 0 561 -80 0 -80 0 -2 -1469 c-3
-1467 -3 -1470 -24 -1497 -39 -53 -71 -69 -134 -69 -63 0 -95 16 -134 69 -21
27 -21 35 -24 1057 l-2 1029 -80 0 -80 0 -2 -1029 c-3 -1022 -3 -1030 -24
-1057 -39 -53 -71 -69 -134 -69 -63 0 -95 16 -134 69 -20 26 -21 43 -24 321
l-3 294 26 50 c72 143 72 299 0 441 l-25 49 0 906 0 905 -80 0 -80 0 0 -561 0
-561 -70 4 c-74 4 -105 19 -144 72 -20 26 -21 42 -24 399 -2 251 1 396 8 447
37 230 175 438 375 561 43 27 84 49 90 49 7 0 18 -18 25 -39z m-1940 -371 l0
-160 320 0 320 0 0 160 0 160 80 0 80 0 0 -400 0 -400 -80 0 -80 0 0 160 0
160 -320 0 -320 0 0 -160 0 -160 -80 0 -80 0 0 400 0 400 80 0 80 0 0 -160z
m480 80 l0 -80 -160 0 -160 0 0 80 0 80 160 0 160 0 0 -80z m0 -640 l0 -80
-160 0 -160 0 0 80 0 80 160 0 160 0 0 -80z m-1440 -400 l0 -160 320 0 320 0
0 160 0 160 80 0 80 0 0 -400 0 -400 -80 0 -80 0 0 160 0 160 -320 0 -320 0 0
-160 0 -160 -80 0 -80 0 0 400 0 400 80 0 80 0 0 -160z m480 80 l0 -80 -160 0
-160 0 0 80 0 80 160 0 160 0 0 -80z m640 -320 l0 -400 -80 0 -80 0 0 400 0
400 80 0 80 0 0 -400z m320 240 l0 -160 320 0 320 0 0 160 0 160 80 0 80 0 0
-400 0 -400 -80 0 -80 0 0 160 0 160 -320 0 -320 0 0 -160 0 -160 -80 0 -80 0
0 400 0 400 80 0 80 0 0 -160z m480 80 l0 -80 -160 0 -160 0 0 80 0 80 160 0
160 0 0 -80z m559 -386 c24 -8 70 -14 103 -14 l58 0 0 -191 c0 -178 -1 -191
-17 -184 -78 33 -120 46 -168 51 l-55 7 0 179 c0 168 1 180 18 173 9 -4 37
-14 61 -21z m-1999 -254 l0 -80 -160 0 -160 0 0 80 0 80 160 0 160 0 0 -80z
m1440 0 l0 -80 -160 0 -160 0 0 80 0 80 160 0 160 0 0 -80z m-2128 -286 c-24
-26 -58 -77 -76 -113 -28 -60 -31 -75 -31 -161 0 -86 3 -101 31 -161 18 -36
52 -88 77 -114 l46 -47 -122 4 c-107 4 -128 8 -173 31 -75 38 -107 69 -145
139 -31 58 -34 70 -33 148 0 100 24 160 89 225 72 72 132 92 281 94 l101 1
-45 -46z m1120 0 c-24 -26 -58 -77 -76 -113 -28 -60 -31 -75 -31 -161 0 -86 3
-101 31 -161 18 -36 52 -87 76 -113 l45 -46 -317 0 -317 0 45 46 c24 26 58 77
76 113 28 60 31 75 31 161 0 86 -3 101 -31 161 -18 36 -52 87 -76 113 l-45 46
317 0 317 0 -45 -46z m800 0 c-46 -49 -102 -153 -102 -191 0 -13 -4 -23 -10
-23 -5 0 -10 10 -10 23 0 38 -56 142 -102 191 l-45 46 157 0 157 0 -45 -46z
m836 6 c70 -37 100 -68 140 -144 22 -43 26 -64 26 -136 1 -78 -2 -90 -33 -148
-38 -70 -70 -101 -145 -139 -45 -23 -66 -27 -173 -31 l-122 -4 46 47 c25 26
59 78 77 114 28 60 31 75 31 161 0 86 -3 101 -31 161 -18 36 -52 88 -77 114
l-46 47 122 -4 c116 -4 125 -6 185 -38z m-2394 -52 c55 -16 138 -99 154 -154
28 -94 8 -169 -63 -239 -101 -102 -229 -102 -330 0 -102 101 -102 229 0 330
70 71 145 90 239 63z m1120 0 c86 -26 166 -136 166 -228 0 -124 -116 -240
-240 -240 -92 0 -202 80 -228 166 -28 94 -8 169 63 239 70 71 145 90 239 63z
m800 0 c86 -26 166 -136 166 -228 0 -124 -116 -240 -240 -240 -124 0 -240 116
-240 240 0 63 23 114 75 165 70 71 145 90 239 63z m-464 -310 c0 -39 56 -143
102 -192 l45 -46 -157 0 -157 0 45 46 c46 49 102 153 102 192 0 12 5 22 10 22
6 0 10 -10 10 -22z m630 -638 l0 -240 -1200 0 -1200 0 0 240 0 240 1200 0
1200 0 0 -240z"/>
<path d="M905 1255 c-16 -15 -25 -36 -25 -55 0 -19 9 -40 25 -55 15 -16 36
-25 55 -25 19 0 40 9 55 25 16 15 25 36 25 55 0 19 -9 40 -25 55 -15 16 -36
25 -55 25 -19 0 -40 -9 -55 -25z"/>
<path d="M2025 1255 c-50 -49 -15 -135 55 -135 19 0 40 9 55 25 16 15 25 36
25 55 0 19 -9 40 -25 55 -15 16 -36 25 -55 25 -19 0 -40 -9 -55 -25z"/>
<path d="M2825 1255 c-50 -49 -15 -135 55 -135 41 0 80 39 80 80 0 41 -39 80
-80 80 -19 0 -40 -9 -55 -25z"/>
<path d="M80 3520 l0 -560 640 0 640 0 0 560 0 560 -640 0 -640 0 0 -560z
m320 240 l0 -160 320 0 320 0 0 160 0 160 80 0 80 0 0 -400 0 -400 -80 0 -80
0 0 160 0 160 -320 0 -320 0 0 -160 0 -160 -80 0 -80 0 0 400 0 400 80 0 80 0
0 -160z m480 80 l0 -80 -160 0 -160 0 0 80 0 80 160 0 160 0 0 -80z m0 -640
l0 -80 -160 0 -160 0 0 80 0 80 160 0 160 0 0 -80z"/>
</g>
</svg>
