<?xml version="1.0" standalone="no"?>
<!DOCTYPE svg PUBLIC "-//W3C//DTD SVG 20010904//EN"
 "http://www.w3.org/TR/2001/REC-SVG-20010904/DTD/svg10.dtd">
<svg version="1.0" xmlns="http://www.w3.org/2000/svg"
 width="512.000000pt" height="512.000000pt" viewBox="0 0 512.000000 512.000000"
 preserveAspectRatio="xMidYMid meet">

<g transform="translate(0.000000,512.000000) scale(0.100000,-0.100000)"
fill="#000000" stroke="none">
<path d="M1648 5110 c-166 -30 -307 -123 -432 -283 -34 -45 -120 -169 -190
-276 -165 -251 -207 -292 -468 -464 -307 -203 -390 -275 -474 -414 -62 -103
-79 -178 -78 -338 1 -141 6 -177 68 -470 53 -253 53 -356 0 -610 -61 -289 -67
-329 -68 -470 -1 -119 2 -151 21 -210 57 -181 175 -309 448 -487 95 -62 128
-78 157 -78 79 0 128 88 86 152 -9 13 -81 67 -159 120 -367 244 -404 357 -293
878 47 220 48 229 48 400 0 171 -1 180 -48 400 -80 374 -74 520 24 651 60 80
131 137 375 298 273 180 357 259 490 461 176 269 195 296 247 357 169 200 308
223 758 127 220 -47 229 -48 400 -48 171 0 180 1 400 48 427 91 560 75 717
-83 66 -67 102 -117 265 -366 151 -229 234 -312 463 -463 249 -163 299 -199
366 -265 158 -157 174 -290 83 -717 -47 -220 -48 -229 -48 -400 0 -171 1 -180
48 -400 91 -426 75 -560 -85 -718 -65 -65 -115 -101 -364 -264 -229 -151 -312
-234 -463 -463 -163 -249 -199 -299 -264 -364 -158 -160 -292 -176 -718 -85
-220 47 -229 48 -400 48 -171 0 -180 -1 -400 -48 -555 -118 -640 -82 -959 412
-49 77 -93 134 -107 141 -43 19 -81 13 -116 -18 -26 -23 -33 -37 -33 -68 0
-33 17 -65 104 -199 178 -273 261 -367 397 -449 102 -62 179 -80 334 -79 137
0 171 5 451 63 288 60 372 60 659 0 236 -49 300 -59 405 -66 235 -13 421 67
577 251 33 39 125 170 205 290 184 278 222 315 474 482 107 70 231 156 277
192 211 163 303 357 289 607 -7 105 -17 169 -66 405 -17 80 -35 187 -41 237
-12 112 -2 216 41 423 49 236 59 300 66 405 13 234 -66 419 -248 575 -38 33
-168 125 -291 206 -280 186 -317 222 -484 475 -207 316 -280 400 -420 484
-104 63 -178 80 -339 79 -141 -1 -177 -6 -470 -68 -253 -53 -356 -53 -610 0
-313 66 -493 85 -607 64z"/>
<path d="M2330 4439 c-200 -26 -407 -87 -588 -174 -584 -281 -981 -836 -1062
-1485 -13 -109 -13 -331 0 -440 81 -647 471 -1195 1055 -1481 265 -130 527
-189 830 -189 958 2 1756 712 1875 1670 24 194 8 468 -39 664 -60 249 -223
582 -350 717 -33 33 -44 39 -80 39 -34 0 -49 -6 -72 -29 -49 -49 -42 -82 48
-213 269 -396 360 -863 257 -1328 -140 -631 -643 -1134 -1274 -1274 -246 -54
-495 -54 -740 0 -632 141 -1133 642 -1274 1275 -55 246 -55 492 0 738 108 482
423 893 864 1124 467 245 1023 257 1498 32 51 -25 120 -60 151 -80 74 -44 126
-47 164 -9 31 31 41 71 28 107 -31 81 -422 261 -676 311 -182 36 -449 47 -615
25z"/>
<path d="M1898 3471 c-75 -24 -118 -52 -172 -112 -81 -90 -112 -220 -82 -339
31 -118 99 -199 216 -254 57 -27 75 -31 150 -30 74 0 94 4 152 31 86 40 151
105 191 191 27 58 31 78 31 152 1 75 -3 93 -30 150 -54 115 -135 185 -249 215
-76 19 -136 18 -207 -4z m210 -220 c18 -12 41 -40 52 -61 75 -147 -83 -305
-230 -230 -61 31 -85 73 -85 151 0 56 4 71 27 101 15 19 42 42 60 52 46 24
134 17 176 -13z"/>
<path d="M3345 3481 c-11 -5 -400 -390 -865 -855 l-845 -846 0 -45 c0 -63 37
-100 100 -100 l45 0 852 853 853 852 0 45 c0 34 -6 50 -26 70 -27 28 -82 40
-114 26z"/>
<path d="M3032 2380 c-62 -13 -157 -67 -198 -113 -20 -22 -50 -69 -67 -105
-26 -56 -31 -78 -31 -146 -1 -136 54 -243 164 -318 216 -148 510 -34 576 222
47 184 -52 372 -234 443 -55 22 -151 29 -210 17z m158 -220 c61 -31 85 -73 85
-151 0 -56 -4 -71 -27 -101 -38 -49 -88 -71 -153 -66 -63 5 -108 35 -135 88
-75 148 82 305 230 230z"/>
</g>
</svg>
